<svg width="48" height="48" viewBox="0 0 48 48" fill="none" xmlns="http://www.w3.org/2000/svg">
<rect width="48" height="48" rx="8" fill="#F7EADF"/>
<path d="M32.1084 31.0752C32.1084 29.9867 32.4712 29.0796 33.2574 28.2935C34.0133 27.5376 34.9506 27.1445 36.0693 27.1445C37.1578 27.1445 38.0649 27.5376 38.851 28.2935C39.6069 29.0796 40 29.9867 40 31.0752C40 32.1939 39.6069 33.1313 38.851 33.8872C38.0649 34.6733 37.1578 35.0361 36.0693 35.0361C34.9506 35.0361 34.0133 34.6733 33.2574 33.8872C32.4712 33.1313 32.1084 32.1939 32.1084 31.0752Z" fill="#EF7438"/>
<path d="M10.5701 19.4646C10.5096 19.2832 10.3886 18.9204 10.2677 18.4366C10.1165 17.9528 9.99557 17.6202 9.9351 17.3783C9.87463 17.1364 9.75368 16.8341 9.63274 16.441C9.5118 16.0479 9.39085 15.7456 9.30015 15.5037C9.1792 15.2618 9.05826 15.0199 8.93731 14.7176C8.78613 14.4152 8.63495 14.1733 8.48378 13.9617C8.3326 13.7803 8.18142 13.5988 8 13.4174H18.5826C18.3407 13.9617 18.25 14.5966 18.2802 15.3223C18.2802 16.0782 18.3407 16.6829 18.4616 17.1667C18.5523 17.6505 18.7338 18.4366 19.0361 19.4646C19.1571 19.9484 19.3385 20.7345 19.6408 21.823C19.913 22.9115 20.1246 23.7884 20.306 24.3931C20.4874 25.028 20.6991 25.8142 20.9712 26.7817C21.2433 27.7493 21.4852 28.5354 21.6969 29.1099C21.8783 29.7146 22.1202 30.2891 22.3621 30.8636C22.604 31.4683 22.8458 31.8916 23.0877 32.1637C23.2994 32.4661 23.511 32.587 23.7227 32.587C24.2367 32.587 24.7205 31.8613 25.2043 30.41C25.6578 28.9587 25.8997 27.3864 25.8997 25.6932C25.8997 24.4838 25.7485 23.4255 25.4764 22.4882C25.2043 21.5811 24.8717 20.8555 24.4786 20.3717C24.0553 19.8879 23.632 19.4344 23.1482 19.0715C22.6644 18.7087 22.2411 18.4668 21.8481 18.2854C21.4248 18.104 21.0922 17.9226 20.82 17.7109C20.5479 17.5295 20.427 17.3179 20.427 17.076C20.427 16.1387 21.1829 15.2316 22.7249 14.3245C24.2669 13.4174 25.8392 12.9639 27.4417 12.9639C28.5302 12.9639 29.3768 13.357 29.9211 14.0826C30.4653 14.8385 30.7374 15.7456 30.7374 16.8341C30.7374 17.4086 30.6467 18.104 30.4653 18.9204C30.2839 19.7367 30.0118 20.7648 29.6187 22.0044C29.2256 23.2743 28.893 24.3326 28.5907 25.1792C28.2883 26.056 27.8348 27.3562 27.2301 29.0796C26.6253 30.8333 26.202 32.0428 25.9601 32.7684C25.809 33.222 25.6578 33.5848 25.4764 33.8267C25.295 34.0988 25.0833 34.2802 24.8414 34.3709C24.5995 34.4919 24.3879 34.5523 24.2669 34.5523C24.1158 34.5826 23.9041 34.5826 23.6017 34.5826H16.9801C16.4358 34.5826 15.9218 34.4012 15.4985 34.0383C15.0752 33.6755 14.6821 33.101 14.3798 32.3451C14.0472 31.5892 13.8053 30.924 13.6239 30.3495C13.4425 29.7751 13.2308 28.9889 12.9889 27.9911C12.9587 27.9307 12.9285 27.8702 12.9285 27.8097C12.9285 27.7493 12.8982 27.6888 12.8982 27.5981C12.868 27.5376 12.8378 27.4469 12.8378 27.3864C12.4447 25.9351 11.6888 23.2743 10.5701 19.4646Z" fill="#2C2520"/>
</svg>
